<svg id="visual" viewBox="0 0 900 600" width="900" height="600" xmlns="http://www.w3.org/2000/svg" xmlns:xlink="http://www.w3.org/1999/xlink" version="1.1"><g stroke-width="1" stroke-linejoin="bevel"><path d="M453.9 307L482.1 322L476.9 304Z" fill="#0c83cf" stroke="#0c83cf"></path><path d="M482.1 322L518.7 277L476.9 304Z" fill="#0d44ab" stroke="#0d44ab"></path><path d="M476.9 304L440.1 229L453.9 307Z" fill="#0051b4" stroke="#0051b4"></path><path d="M518.7 277L440.1 229L476.9 304Z" fill="#319bd8" stroke="#319bd8"></path><path d="M440.1 229L430.9 223L453.9 307Z" fill="#319bd8" stroke="#319bd8"></path><path d="M458.9 210L430.9 223L440.1 229Z" fill="#006bc3" stroke="#006bc3"></path><path d="M518.7 277L458.9 210L440.1 229Z" fill="#44a7db" stroke="#44a7db"></path><path d="M486.9 450L569.9 377L482.1 322Z" fill="#319bd8" stroke="#319bd8"></path><path d="M482.1 322L569.9 377L518.7 277Z" fill="#005ebc" stroke="#005ebc"></path><path d="M597.5 201L514.7 194L518.7 277Z" fill="#0d44ab" stroke="#0d44ab"></path><path d="M518.7 277L514.7 194L458.9 210Z" fill="#56b2df" stroke="#56b2df"></path><path d="M385.3 449L482.1 322L453.9 307Z" fill="#44a7db" stroke="#44a7db"></path><path d="M385.3 449L486.9 450L482.1 322Z" fill="#0d44ab" stroke="#0d44ab"></path><path d="M569.9 377L608.7 331L518.7 277Z" fill="#0077c9" stroke="#0077c9"></path><path d="M430.9 223L320.3 357L453.9 307Z" fill="#1c36a1" stroke="#1c36a1"></path><path d="M320.3 357L385.3 449L453.9 307Z" fill="#56b2df" stroke="#56b2df"></path><path d="M592.7 428L606.5 393L569.9 377Z" fill="#319bd8" stroke="#319bd8"></path><path d="M569.9 377L606.5 393L608.7 331Z" fill="#1f8fd3" stroke="#1f8fd3"></path><path d="M486.9 450L592.7 428L569.9 377Z" fill="#0051b4" stroke="#0051b4"></path><path d="M608.7 331L597.5 201L518.7 277Z" fill="#44a7db" stroke="#44a7db"></path><path d="M252.3 447L378.3 475L385.3 449Z" fill="#44a7db" stroke="#44a7db"></path><path d="M385.3 449L413.1 514L486.9 450Z" fill="#319bd8" stroke="#319bd8"></path><path d="M552.7 514L600.7 442L592.7 428Z" fill="#0077c9" stroke="#0077c9"></path><path d="M552.7 514L592.7 428L486.9 450Z" fill="#005ebc" stroke="#005ebc"></path><path d="M592.7 428L600.7 442L606.5 393Z" fill="#006bc3" stroke="#006bc3"></path><path d="M427.1 129L367.1 153L430.9 223Z" fill="#319bd8" stroke="#319bd8"></path><path d="M430.9 223L287.5 222L320.3 357Z" fill="#56b2df" stroke="#56b2df"></path><path d="M427.1 129L430.9 223L458.9 210Z" fill="#0c83cf" stroke="#0c83cf"></path><path d="M427.1 129L458.9 210L514.7 194Z" fill="#006bc3" stroke="#006bc3"></path><path d="M510.7 48L427.1 129L514.7 194Z" fill="#0c83cf" stroke="#0c83cf"></path><path d="M335.1 159L287.5 222L430.9 223Z" fill="#006bc3" stroke="#006bc3"></path><path d="M378.3 475L413.1 514L385.3 449Z" fill="#1f8fd3" stroke="#1f8fd3"></path><path d="M365.3 120L335.1 159L367.1 153Z" fill="#005ebc" stroke="#005ebc"></path><path d="M367.1 153L335.1 159L430.9 223Z" fill="#0077c9" stroke="#0077c9"></path><path d="M692.5 339L672.5 294L608.7 331Z" fill="#1f8fd3" stroke="#1f8fd3"></path><path d="M608.7 331L672.5 294L597.5 201Z" fill="#1f8fd3" stroke="#1f8fd3"></path><path d="M692.5 339L608.7 331L606.5 393Z" fill="#1f8fd3" stroke="#1f8fd3"></path><path d="M287.5 222L266.5 261L320.3 357Z" fill="#1f8fd3" stroke="#1f8fd3"></path><path d="M320.3 357L252.3 447L385.3 449Z" fill="#0051b4" stroke="#0051b4"></path><path d="M413.1 514L552.7 514L486.9 450Z" fill="#56b2df" stroke="#56b2df"></path><path d="M427.1 129L365.3 120L367.1 153Z" fill="#0077c9" stroke="#0077c9"></path><path d="M727.4 396L692.5 339L606.5 393Z" fill="#006bc3" stroke="#006bc3"></path><path d="M706.4 334L692.5 339L727.4 396Z" fill="#0c83cf" stroke="#0c83cf"></path><path d="M727.4 396L606.5 393L600.7 442Z" fill="#1c36a1" stroke="#1c36a1"></path><path d="M692.5 339L706.4 334L672.5 294Z" fill="#0077c9" stroke="#0077c9"></path><path d="M672.5 294L656.5 167L597.5 201Z" fill="#56b2df" stroke="#56b2df"></path><path d="M720.4 257L656.5 167L672.5 294Z" fill="#1f8fd3" stroke="#1f8fd3"></path><path d="M597.5 201L510.7 48L514.7 194Z" fill="#44a7db" stroke="#44a7db"></path><path d="M266.5 261L228.5 377L320.3 357Z" fill="#319bd8" stroke="#319bd8"></path><path d="M378.3 475L332.1 551L413.1 514Z" fill="#006bc3" stroke="#006bc3"></path><path d="M706.4 334L716.4 300L672.5 294Z" fill="#0051b4" stroke="#0051b4"></path><path d="M228.5 377L252.3 447L320.3 357Z" fill="#319bd8" stroke="#319bd8"></path><path d="M365.3 120L308.3 117L335.1 159Z" fill="#1c36a1" stroke="#1c36a1"></path><path d="M335.1 159L271.3 152L287.5 222Z" fill="#1c36a1" stroke="#1c36a1"></path><path d="M287.5 222L233.6 193L266.5 261Z" fill="#0051b4" stroke="#0051b4"></path><path d="M266.5 261L100.8 304L228.5 377Z" fill="#44a7db" stroke="#44a7db"></path><path d="M308.3 117L271.3 152L335.1 159Z" fill="#006bc3" stroke="#006bc3"></path><path d="M716.4 300L720.4 257L672.5 294Z" fill="#1f8fd3" stroke="#1f8fd3"></path><path d="M271.3 152L233.6 193L287.5 222Z" fill="#0d44ab" stroke="#0d44ab"></path><path d="M252.3 447L332.1 551L378.3 475Z" fill="#1c36a1" stroke="#1c36a1"></path><path d="M413.1 514L475.9 600L552.7 514Z" fill="#0051b4" stroke="#0051b4"></path><path d="M656.5 167L510.7 48L597.5 201Z" fill="#0077c9" stroke="#0077c9"></path><path d="M427.1 129L426.9 -1L365.3 120Z" fill="#56b2df" stroke="#56b2df"></path><path d="M365.3 120L369.1 0L308.3 117Z" fill="#006bc3" stroke="#006bc3"></path><path d="M781.2 429L727.4 396L699.5 569Z" fill="#0051b4" stroke="#0051b4"></path><path d="M706.4 334L802.2 282L716.4 300Z" fill="#56b2df" stroke="#56b2df"></path><path d="M716.4 300L802.2 282L720.4 257Z" fill="#1c36a1" stroke="#1c36a1"></path><path d="M206.6 417L252.3 447L228.5 377Z" fill="#0c83cf" stroke="#0c83cf"></path><path d="M206.6 417L219.5 440L252.3 447Z" fill="#0c83cf" stroke="#0c83cf"></path><path d="M252.3 447L239.5 489L332.1 551Z" fill="#0d44ab" stroke="#0d44ab"></path><path d="M100.8 304L206.6 417L228.5 377Z" fill="#0077c9" stroke="#0077c9"></path><path d="M720.4 257L708.4 171L656.5 167Z" fill="#006bc3" stroke="#006bc3"></path><path d="M656.5 167L680.5 95L510.7 48Z" fill="#44a7db" stroke="#44a7db"></path><path d="M380.1 600L475.9 600L413.1 514Z" fill="#0c83cf" stroke="#0c83cf"></path><path d="M781.2 429L762.2 396L727.4 396Z" fill="#005ebc" stroke="#005ebc"></path><path d="M219.5 440L239.5 489L252.3 447Z" fill="#0051b4" stroke="#0051b4"></path><path d="M104.6 486L239.5 489L219.5 440Z" fill="#44a7db" stroke="#44a7db"></path><path d="M475.9 600L527.7 600L552.7 514Z" fill="#006bc3" stroke="#006bc3"></path><path d="M332.1 551L380.1 600L413.1 514Z" fill="#1c36a1" stroke="#1c36a1"></path><path d="M319.3 600L380.1 600L332.1 551Z" fill="#319bd8" stroke="#319bd8"></path><path d="M727.4 396L600.7 442L699.5 569Z" fill="#44a7db" stroke="#44a7db"></path><path d="M727.4 396L762.2 396L706.4 334Z" fill="#319bd8" stroke="#319bd8"></path><path d="M720.4 257L787.2 205L708.4 171Z" fill="#319bd8" stroke="#319bd8"></path><path d="M708.4 171L680.5 95L656.5 167Z" fill="#005ebc" stroke="#005ebc"></path><path d="M634.7 0L431.9 0L510.7 48Z" fill="#006bc3" stroke="#006bc3"></path><path d="M510.7 48L431.9 0L427.1 129Z" fill="#006bc3" stroke="#006bc3"></path><path d="M182.5 133L233.6 193L271.3 152Z" fill="#0051b4" stroke="#0051b4"></path><path d="M277.5 600L319.3 600L332.1 551Z" fill="#44a7db" stroke="#44a7db"></path><path d="M431.9 0L426.9 -1L427.1 129Z" fill="#1c36a1" stroke="#1c36a1"></path><path d="M182.5 133L162.6 206L233.6 193Z" fill="#1c36a1" stroke="#1c36a1"></path><path d="M233.6 193L162.6 206L266.5 261Z" fill="#56b2df" stroke="#56b2df"></path><path d="M182.5 133L271.3 152L211.6 94Z" fill="#0d44ab" stroke="#0d44ab"></path><path d="M426.9 -1L374.3 0L365.3 120Z" fill="#44a7db" stroke="#44a7db"></path><path d="M426.9 -1L369.1 0L374.3 0Z" fill="#1c36a1" stroke="#1c36a1"></path><path d="M374.3 0L369.1 0L365.3 120Z" fill="#1f8fd3" stroke="#1f8fd3"></path><path d="M699.5 569L600.7 442L552.7 514Z" fill="#0c83cf" stroke="#0c83cf"></path><path d="M762.2 396L802.2 282L706.4 334Z" fill="#0051b4" stroke="#0051b4"></path><path d="M900 280L802.2 282L900 394Z" fill="#006bc3" stroke="#006bc3"></path><path d="M708.4 171L857.2 119L680.5 95Z" fill="#0d44ab" stroke="#0d44ab"></path><path d="M211.6 94L271.3 152L308.3 117Z" fill="#005ebc" stroke="#005ebc"></path><path d="M237.5 15L211.6 94L308.3 117Z" fill="#005ebc" stroke="#005ebc"></path><path d="M802.2 282L787.2 205L720.4 257Z" fill="#005ebc" stroke="#005ebc"></path><path d="M145.6 600L277.5 600L239.5 489Z" fill="#56b2df" stroke="#56b2df"></path><path d="M239.5 489L277.5 600L332.1 551Z" fill="#005ebc" stroke="#005ebc"></path><path d="M664.5 600L699.5 569L552.7 514Z" fill="#56b2df" stroke="#56b2df"></path><path d="M527.7 600L664.5 600L552.7 514Z" fill="#1c36a1" stroke="#1c36a1"></path><path d="M739.2 0L667.4 20L680.5 95Z" fill="#319bd8" stroke="#319bd8"></path><path d="M680.5 95L634.7 0L510.7 48Z" fill="#0077c9" stroke="#0077c9"></path><path d="M431.9 0L634.7 0L426.9 -1Z" fill="#0051b4" stroke="#0051b4"></path><path d="M667.4 20L634.7 0L680.5 95Z" fill="#56b2df" stroke="#56b2df"></path><path d="M92.6 218L100.8 304L162.6 206Z" fill="#005ebc" stroke="#005ebc"></path><path d="M162.6 206L100.8 304L266.5 261Z" fill="#1c36a1" stroke="#1c36a1"></path><path d="M206.6 417L104.6 486L219.5 440Z" fill="#1f8fd3" stroke="#1f8fd3"></path><path d="M657.5 0L656.4 0L667.4 20Z" fill="#1f8fd3" stroke="#1f8fd3"></path><path d="M667.4 20L656.4 0L634.7 0Z" fill="#44a7db" stroke="#44a7db"></path><path d="M634.7 0L656.4 0L426.9 -1Z" fill="#1c36a1" stroke="#1c36a1"></path><path d="M739.2 0L657.5 0L667.4 20Z" fill="#0c83cf" stroke="#0c83cf"></path><path d="M656.4 0L657.5 0L426.9 -1Z" fill="#0051b4" stroke="#0051b4"></path><path d="M900 280L834.2 264L802.2 282Z" fill="#319bd8" stroke="#319bd8"></path><path d="M802.2 282L834.2 264L787.2 205Z" fill="#1f8fd3" stroke="#1f8fd3"></path><path d="M857.2 119L739.2 0L680.5 95Z" fill="#006bc3" stroke="#006bc3"></path><path d="M699.5 569L736.4 578L781.2 429Z" fill="#44a7db" stroke="#44a7db"></path><path d="M900 394L802.2 282L762.2 396Z" fill="#005ebc" stroke="#005ebc"></path><path d="M664.5 600L736.4 578L699.5 569Z" fill="#005ebc" stroke="#005ebc"></path><path d="M211.6 94L97.8 77L182.5 133Z" fill="#0051b4" stroke="#0051b4"></path><path d="M182.5 133L92.6 218L162.6 206Z" fill="#006bc3" stroke="#006bc3"></path><path d="M369.1 0L237.5 15L308.3 117Z" fill="#319bd8" stroke="#319bd8"></path><path d="M61.8 200L92.6 218L182.5 133Z" fill="#006bc3" stroke="#006bc3"></path><path d="M44.8 389L206.6 417L100.8 304Z" fill="#0c83cf" stroke="#0c83cf"></path><path d="M44.8 389L104.6 486L206.6 417Z" fill="#44a7db" stroke="#44a7db"></path><path d="M857.2 119L708.4 171L787.2 205Z" fill="#0051b4" stroke="#0051b4"></path><path d="M657.5 0L739.2 0L426.9 -1Z" fill="#56b2df" stroke="#56b2df"></path><path d="M97.8 77L61.8 200L182.5 133Z" fill="#44a7db" stroke="#44a7db"></path><path d="M92.6 218L26.8 303L100.8 304Z" fill="#0077c9" stroke="#0077c9"></path><path d="M369.1 0L184.5 0L237.5 15Z" fill="#1c36a1" stroke="#1c36a1"></path><path d="M237.5 15L184.5 0L211.6 94Z" fill="#006bc3" stroke="#006bc3"></path><path d="M426.9 -1L184.5 0L369.1 0Z" fill="#0077c9" stroke="#0077c9"></path><path d="M26.8 303L44.8 389L100.8 304Z" fill="#56b2df" stroke="#56b2df"></path><path d="M103.6 546L145.6 600L239.5 489Z" fill="#0077c9" stroke="#0077c9"></path><path d="M103.6 546L239.5 489L104.6 486Z" fill="#319bd8" stroke="#319bd8"></path><path d="M80.8 582L103.6 546L0 510Z" fill="#1c36a1" stroke="#1c36a1"></path><path d="M900 394L762.2 396L781.2 429Z" fill="#0051b4" stroke="#0051b4"></path><path d="M900 193L857.2 119L787.2 205Z" fill="#0c83cf" stroke="#0c83cf"></path><path d="M736.4 578L856.2 515L781.2 429Z" fill="#0077c9" stroke="#0077c9"></path><path d="M0 392L38.8 405L44.8 389Z" fill="#0077c9" stroke="#0077c9"></path><path d="M44.8 389L38.8 405L104.6 486Z" fill="#0077c9" stroke="#0077c9"></path><path d="M900 222L787.2 205L834.2 264Z" fill="#0c83cf" stroke="#0c83cf"></path><path d="M900 440L900 394L781.2 429Z" fill="#1f8fd3" stroke="#1f8fd3"></path><path d="M152.6 0L97.8 77L211.6 94Z" fill="#005ebc" stroke="#005ebc"></path><path d="M0 283L26.8 303L0 243Z" fill="#56b2df" stroke="#56b2df"></path><path d="M0 243L26.8 303L92.6 218Z" fill="#0d44ab" stroke="#0d44ab"></path><path d="M900 280L900 222L834.2 264Z" fill="#0051b4" stroke="#0051b4"></path><path d="M184.5 0L152.6 0L211.6 94Z" fill="#0c83cf" stroke="#0c83cf"></path><path d="M426.9 -1L152.6 0L184.5 0Z" fill="#319bd8" stroke="#319bd8"></path><path d="M736.4 578L813.4 600L856.2 515Z" fill="#1c36a1" stroke="#1c36a1"></path><path d="M664.5 600L813.4 600L736.4 578Z" fill="#1c36a1" stroke="#1c36a1"></path><path d="M900 550L900 440L856.2 515Z" fill="#1c36a1" stroke="#1c36a1"></path><path d="M856.2 515L900 440L781.2 429Z" fill="#005ebc" stroke="#005ebc"></path><path d="M900 222L900 193L787.2 205Z" fill="#0077c9" stroke="#0077c9"></path><path d="M813.4 600L819.2 600L856.2 515Z" fill="#0d44ab" stroke="#0d44ab"></path><path d="M0 243L92.6 218L61.8 200Z" fill="#1f8fd3" stroke="#1f8fd3"></path><path d="M26.8 303L0 364L44.8 389Z" fill="#0c83cf" stroke="#0c83cf"></path><path d="M0 510L103.6 546L104.6 486Z" fill="#56b2df" stroke="#56b2df"></path><path d="M103.6 546L80.8 582L145.6 600Z" fill="#005ebc" stroke="#005ebc"></path><path d="M0 510L104.6 486L38.8 405Z" fill="#56b2df" stroke="#56b2df"></path><path d="M0 283L0 364L26.8 303Z" fill="#319bd8" stroke="#319bd8"></path><path d="M0 77L0 243L61.8 200Z" fill="#0051b4" stroke="#0051b4"></path><path d="M0 364L0 392L44.8 389Z" fill="#0c83cf" stroke="#0c83cf"></path><path d="M152.6 0L114.8 0L97.8 77Z" fill="#56b2df" stroke="#56b2df"></path><path d="M97.8 77L0 77L61.8 200Z" fill="#1f8fd3" stroke="#1f8fd3"></path><path d="M426.9 -1L114.8 0L152.6 0Z" fill="#0051b4" stroke="#0051b4"></path><path d="M0 600L78.8 600L80.8 582Z" fill="#0c83cf" stroke="#0c83cf"></path><path d="M80.8 582L78.8 600L145.6 600Z" fill="#0d44ab" stroke="#0d44ab"></path><path d="M819.2 600L900 550L856.2 515Z" fill="#0077c9" stroke="#0077c9"></path><path d="M900 193L900 57L857.2 119Z" fill="#0051b4" stroke="#0051b4"></path><path d="M857.2 119L900 57L739.2 0Z" fill="#0077c9" stroke="#0077c9"></path><path d="M0 392L0 510L38.8 405Z" fill="#0051b4" stroke="#0051b4"></path><path d="M819.2 600L900 600L900 550Z" fill="#006bc3" stroke="#006bc3"></path><path d="M0 71L0 77L97.8 77Z" fill="#0051b4" stroke="#0051b4"></path><path d="M0 0L0 71L97.8 77Z" fill="#319bd8" stroke="#319bd8"></path><path d="M900 57L900 0L739.2 0Z" fill="#44a7db" stroke="#44a7db"></path><path d="M739.2 0L900 0L426.9 -1Z" fill="#319bd8" stroke="#319bd8"></path><path d="M0 510L0 600L80.8 582Z" fill="#44a7db" stroke="#44a7db"></path><path d="M426.9 -1L0 0L114.8 0Z" fill="#44a7db" stroke="#44a7db"></path><path d="M114.8 0L0 0L97.8 77Z" fill="#0c83cf" stroke="#0c83cf"></path></g></svg>