<svg id="visual" viewBox="0 0 900 600" width="900" height="600" xmlns="http://www.w3.org/2000/svg" xmlns:xlink="http://www.w3.org/1999/xlink" version="1.1"><path d="M0 121L6.5 114C13 107 26 93 39 78C52 63 65 47 78 54C91 61 104 91 117.2 93C130.3 95 143.7 69 156.8 63C170 57 183 71 196 87C209 103 222 121 235 119C248 117 261 95 274 82C287 69 300 65 313 52.8C326 40.7 339 20.3 352 23.3C365 26.3 378 52.7 391 57.8C404 63 417 47 430.2 33.8C443.3 20.7 456.7 10.3 469.8 14.3C483 18.3 496 36.7 509 50.8C522 65 535 75 548 78C561 81 574 77 587 72C600 67 613 61 626 58C639 55 652 55 665 69C678 83 691 111 704 123C717 135 730 131 743.2 126C756.3 121 769.7 115 782.8 103C796 91 809 73 822 67C835 61 848 67 861 68C874 69 887 65 893.5 63L900 61L900 0L893.5 0C887 0 874 0 861 0C848 0 835 0 822 0C809 0 796 0 782.8 0C769.7 0 756.3 0 743.2 0C730 0 717 0 704 0C691 0 678 0 665 0C652 0 639 0 626 0C613 0 600 0 587 0C574 0 561 0 548 0C535 0 522 0 509 0C496 0 483 0 469.8 0C456.7 0 443.3 0 430.2 0C417 0 404 0 391 0C378 0 365 0 352 0C339 0 326 0 313 0C300 0 287 0 274 0C261 0 248 0 235 0C222 0 209 0 196 0C183 0 170 0 156.8 0C143.7 0 130.3 0 117.2 0C104 0 91 0 78 0C65 0 52 0 39 0C26 0 13 0 6.5 0L0 0Z" fill="#00aaff"></path><path d="M0 193L6.5 181C13 169 26 145 39 121C52 97 65 73 78 78C91 83 104 117 117.2 133C130.3 149 143.7 147 156.8 155C170 163 183 181 196 186C209 191 222 183 235 180C248 177 261 179 274 171C287 163 300 145 313 133C326 121 339 115 352 107C365 99 378 89 391 82C404 75 417 71 430.2 64C443.3 57 456.7 47 469.8 46C483 45 496 53 509 62C522 71 535 81 548 101C561 121 574 151 587 150C600 149 613 117 626 116C639 115 652 145 665 159C678 173 691 171 704 168C717 165 730 161 743.2 157C756.3 153 769.7 149 782.8 147C796 145 809 145 822 143C835 141 848 137 861 135C874 133 887 133 893.5 133L900 133L900 59L893.5 61C887 63 874 67 861 66C848 65 835 59 822 65C809 71 796 89 782.8 101C769.7 113 756.3 119 743.2 124C730 129 717 133 704 121C691 109 678 81 665 67C652 53 639 53 626 56C613 59 600 65 587 70C574 75 561 79 548 76C535 73 522 63 509 49.2C496 35.3 483 17.7 469.8 13.7C456.7 9.7 443.3 19.3 430.2 32.2C417 45 404 61 391 56.2C378 51.3 365 25.7 352 22.7C339 19.7 326 39.3 313 51.2C300 63 287 67 274 80C261 93 248 115 235 117C222 119 209 101 196 85C183 69 170 55 156.8 61C143.7 67 130.3 93 117.2 91C104 89 91 59 78 52C65 45 52 61 39 76C26 91 13 105 6.5 112L0 119Z" fill="#009bff"></path><path d="M0 301L6.5 305C13 309 26 317 39 327C52 337 65 349 78 335C91 321 104 281 117.2 280C130.3 279 143.7 317 156.8 332C170 347 183 339 196 318C209 297 222 263 235 278C248 293 261 357 274 372C287 387 300 353 313 308C326 263 339 207 352 193C365 179 378 207 391 237C404 267 417 299 430.2 303C443.3 307 456.7 283 469.8 279C483 275 496 291 509 300C522 309 535 311 548 332C561 353 574 393 587 374C600 355 613 277 626 236C639 195 652 191 665 196C678 201 691 215 704 239C717 263 730 297 743.2 317C756.3 337 769.7 343 782.8 345C796 347 809 345 822 314C835 283 848 223 861 201C874 179 887 195 893.5 203L900 211L900 131L893.5 131C887 131 874 131 861 133C848 135 835 139 822 141C809 143 796 143 782.8 145C769.7 147 756.3 151 743.2 155C730 159 717 163 704 166C691 169 678 171 665 157C652 143 639 113 626 114C613 115 600 147 587 148C574 149 561 119 548 99C535 79 522 69 509 60C496 51 483 43 469.8 44C456.7 45 443.3 55 430.2 62C417 69 404 73 391 80C378 87 365 97 352 105C339 113 326 119 313 131C300 143 287 161 274 169C261 177 248 175 235 178C222 181 209 189 196 184C183 179 170 161 156.8 153C143.7 145 130.3 147 117.2 131C104 115 91 81 78 76C65 71 52 95 39 119C26 143 13 167 6.5 179L0 191Z" fill="#008aff"></path><path d="M0 307L6.5 316C13 325 26 343 39 354C52 365 65 369 78 351C91 333 104 293 117.2 303C130.3 313 143.7 373 156.8 396C170 419 183 405 196 382C209 359 222 327 235 339C248 351 261 407 274 423C287 439 300 415 313 374C326 333 339 275 352 252C365 229 378 241 391 268C404 295 417 337 430.2 350C443.3 363 456.7 347 469.8 348C483 349 496 367 509 373C522 379 535 373 548 382C561 391 574 415 587 387C600 359 613 279 626 237C639 195 652 191 665 196C678 201 691 215 704 254C717 293 730 357 743.2 391C756.3 425 769.7 429 782.8 420C796 411 809 389 822 359C835 329 848 291 861 280C874 269 887 285 893.5 293L900 301L900 209L893.5 201C887 193 874 177 861 199C848 221 835 281 822 312C809 343 796 345 782.8 343C769.7 341 756.3 335 743.2 315C730 295 717 261 704 237C691 213 678 199 665 194C652 189 639 193 626 234C613 275 600 353 587 372C574 391 561 351 548 330C535 309 522 307 509 298C496 289 483 273 469.8 277C456.7 281 443.3 305 430.2 301C417 297 404 265 391 235C378 205 365 177 352 191C339 205 326 261 313 306C300 351 287 385 274 370C261 355 248 291 235 276C222 261 209 295 196 316C183 337 170 345 156.8 330C143.7 315 130.3 277 117.2 278C104 279 91 319 78 333C65 347 52 335 39 325C26 315 13 307 6.5 303L0 299Z" fill="#0078ff"></path><path d="M0 397L6.5 404C13 411 26 425 39 433C52 441 65 443 78 420C91 397 104 349 117.2 360C130.3 371 143.7 441 156.8 462C170 483 183 455 196 427C209 399 222 371 235 388C248 405 261 467 274 487C287 507 300 485 313 444C326 403 339 343 352 312C365 281 378 279 391 298C404 317 417 357 430.2 374C443.3 391 456.7 385 469.8 384C483 383 496 387 509 391C522 395 535 399 548 410C561 421 574 439 587 418C600 397 613 337 626 304C639 271 652 265 665 271C678 277 691 295 704 332C717 369 730 425 743.2 455C756.3 485 769.7 489 782.8 477C796 465 809 437 822 397C835 357 848 305 861 302C874 299 887 345 893.5 368L900 391L900 299L893.5 291C887 283 874 267 861 278C848 289 835 327 822 357C809 387 796 409 782.8 418C769.7 427 756.3 423 743.2 389C730 355 717 291 704 252C691 213 678 199 665 194C652 189 639 193 626 235C613 277 600 357 587 385C574 413 561 389 548 380C535 371 522 377 509 371C496 365 483 347 469.8 346C456.7 345 443.3 361 430.2 348C417 335 404 293 391 266C378 239 365 227 352 250C339 273 326 331 313 372C300 413 287 437 274 421C261 405 248 349 235 337C222 325 209 357 196 380C183 403 170 417 156.8 394C143.7 371 130.3 311 117.2 301C104 291 91 331 78 349C65 367 52 363 39 352C26 341 13 323 6.5 314L0 305Z" fill="#3863f8"></path><path d="M0 463L6.5 483C13 503 26 543 39 545C52 547 65 511 78 484C91 457 104 439 117.2 446C130.3 453 143.7 485 156.8 509C170 533 183 549 196 555C209 561 222 557 235 563C248 569 261 585 274 573C287 561 300 521 313 515C326 509 339 537 352 532C365 527 378 489 391 487C404 485 417 519 430.2 520C443.3 521 456.7 489 469.8 463C483 437 496 417 509 417C522 417 535 437 548 451C561 465 574 473 587 479C600 485 613 489 626 503C639 517 652 541 665 558C678 575 691 585 704 587C717 589 730 583 743.2 583C756.3 583 769.7 589 782.8 572C796 555 809 515 822 491C835 467 848 459 861 462C874 465 887 479 893.5 486L900 493L900 389L893.5 366C887 343 874 297 861 300C848 303 835 355 822 395C809 435 796 463 782.8 475C769.7 487 756.3 483 743.2 453C730 423 717 367 704 330C691 293 678 275 665 269C652 263 639 269 626 302C613 335 600 395 587 416C574 437 561 419 548 408C535 397 522 393 509 389C496 385 483 381 469.8 382C456.7 383 443.3 389 430.2 372C417 355 404 315 391 296C378 277 365 279 352 310C339 341 326 401 313 442C300 483 287 505 274 485C261 465 248 403 235 386C222 369 209 397 196 425C183 453 170 481 156.8 460C143.7 439 130.3 369 117.2 358C104 347 91 395 78 418C65 441 52 439 39 431C26 423 13 409 6.5 402L0 395Z" fill="#584aed"></path><path d="M0 601L6.5 601C13 601 26 601 39 601C52 601 65 601 78 601C91 601 104 601 117.2 601C130.3 601 143.7 601 156.8 601C170 601 183 601 196 601C209 601 222 601 235 601C248 601 261 601 274 601C287 601 300 601 313 601C326 601 339 601 352 601C365 601 378 601 391 601C404 601 417 601 430.2 601C443.3 601 456.7 601 469.8 601C483 601 496 601 509 601C522 601 535 601 548 601C561 601 574 601 587 601C600 601 613 601 626 601C639 601 652 601 665 601C678 601 691 601 704 601C717 601 730 601 743.2 601C756.3 601 769.7 601 782.8 601C796 601 809 601 822 601C835 601 848 601 861 601C874 601 887 601 893.5 601L900 601L900 491L893.5 484C887 477 874 463 861 460C848 457 835 465 822 489C809 513 796 553 782.8 570C769.7 587 756.3 581 743.2 581C730 581 717 587 704 585C691 583 678 573 665 556C652 539 639 515 626 501C613 487 600 483 587 477C574 471 561 463 548 449C535 435 522 415 509 415C496 415 483 435 469.8 461C456.7 487 443.3 519 430.2 518C417 517 404 483 391 485C378 487 365 525 352 530C339 535 326 507 313 513C300 519 287 559 274 571C261 583 248 567 235 561C222 555 209 559 196 553C183 547 170 531 156.8 507C143.7 483 130.3 451 117.2 444C104 437 91 455 78 482C65 509 52 545 39 543C26 541 13 501 6.5 481L0 461Z" fill="#7224de"></path></svg>