<svg id="visual" viewBox="0 0 900 600" width="900" height="600" xmlns="http://www.w3.org/2000/svg" xmlns:xlink="http://www.w3.org/1999/xlink" version="1.1"><path d="M0 127L82 127L82 49L164 49L164 49L245 49L245 109L327 109L327 55L409 55L409 55L491 55L491 121L573 121L573 43L655 43L655 67L736 67L736 61L818 61L818 79L900 79L900 61L900 0L900 0L818 0L818 0L736 0L736 0L655 0L655 0L573 0L573 0L491 0L491 0L409 0L409 0L327 0L327 0L245 0L245 0L164 0L164 0L82 0L82 0L0 0Z" fill="#69a2fa"></path><path d="M0 169L82 169L82 85L164 85L164 103L245 103L245 187L327 187L327 127L409 127L409 145L491 145L491 175L573 175L573 127L655 127L655 169L736 169L736 151L818 151L818 181L900 181L900 151L900 59L900 77L818 77L818 59L736 59L736 65L655 65L655 41L573 41L573 119L491 119L491 53L409 53L409 53L327 53L327 107L245 107L245 47L164 47L164 47L82 47L82 125L0 125Z" fill="#628df6"></path><path d="M0 289L82 289L82 313L164 313L164 403L245 403L245 283L327 283L327 367L409 367L409 271L491 271L491 355L573 355L573 337L655 337L655 409L736 409L736 373L818 373L818 367L900 367L900 397L900 149L900 179L818 179L818 149L736 149L736 167L655 167L655 125L573 125L573 173L491 173L491 143L409 143L409 125L327 125L327 185L245 185L245 101L164 101L164 83L82 83L82 167L0 167Z" fill="#6477ee"></path><path d="M0 373L82 373L82 445L164 445L164 463L245 463L245 421L327 421L327 481L409 481L409 385L491 385L491 445L573 445L573 469L655 469L655 499L736 499L736 487L818 487L818 451L900 451L900 499L900 395L900 365L818 365L818 371L736 371L736 407L655 407L655 335L573 335L573 353L491 353L491 269L409 269L409 365L327 365L327 281L245 281L245 401L164 401L164 311L82 311L82 287L0 287Z" fill="#6e5ee3"></path><path d="M0 601L82 601L82 601L164 601L164 601L245 601L245 601L327 601L327 601L409 601L409 601L491 601L491 601L573 601L573 601L655 601L655 601L736 601L736 601L818 601L818 601L900 601L900 601L900 497L900 449L818 449L818 485L736 485L736 497L655 497L655 467L573 467L573 443L491 443L491 383L409 383L409 479L327 479L327 419L245 419L245 461L164 461L164 443L82 443L82 371L0 371Z" fill="#7b40d3"></path></svg>